# xmcd CD database file
#
# Track frame offsets:
#	150
#	10897
#	33836
#	50204
#	69011
#	83314
#	104009
#	127459
#	154659
#	183240
#	216690
#	235177
#	266068
#	304909
#	322284
#
# Disc length: 4472 seconds
#
# Revision: 0
# Processed by: cddbd v1.5.1PL0 Copyright (c) Steve Scherf et al.
# Submitted via: CDex 1.51
#
DISCID=da11760f
DTITLE=College of Wooster Jazz Ensemble - Live In Concert - Nov. 7, 2003 - with 'Dirty Dan' Trudell
DYEAR=2003
DGENRE=Jazz
TTITLE0=Humoresque
TTITLE1=Bernie's Tune
TTITLE2=To You
TTITLE3=Home Free
TTITLE4=Sweet Georgia Brown
TTITLE5=Blue Bossa
TTITLE6=Summertime
TTITLE7=Walk On The Wild Side
TTITLE8=Old Man River
TTITLE9=A Kettle Of Fish
TTITLE10=Step Right Up
TTITLE11=Rock Candy
TTITLE12=The Good Life
TTITLE13=Who's Afraid Of Virginia Woolf?
TTITLE14=Who's Afraid Of Virginia Woolf? - Encore
EXTD=YEAR: 2003
EXTT0=
EXTT1=
EXTT2=
EXTT3=
EXTT4=
EXTT5=
EXTT6=
EXTT7=
EXTT8=
EXTT9=
EXTT10=
EXTT11=
EXTT12=
EXTT13=
EXTT14=
PLAYORDER=
